<svg width="21" height="21" viewBox="0 0 21 21" fill="none" xmlns="http://www.w3.org/2000/svg">
<path d="M10.5 5.25V3.5M10.5 5.25C10.0359 5.25 9.59075 5.43437 9.26256 5.76256C8.93438 6.09075 8.75 6.53587 8.75 7C8.75 7.46413 8.93438 7.90925 9.26256 8.23744C9.59075 8.56563 10.0359 8.75 10.5 8.75M10.5 5.25C10.9641 5.25 11.4092 5.43437 11.7374 5.76256C12.0656 6.09075 12.25 6.53587 12.25 7C12.25 7.46413 12.0656 7.90925 11.7374 8.23744C11.4092 8.56563 10.9641 8.75 10.5 8.75M5.25 15.75C5.71413 15.75 6.15925 15.5656 6.48744 15.2374C6.81563 14.9092 7 14.4641 7 14C7 13.5359 6.81563 13.0908 6.48744 12.7626C6.15925 12.4344 5.71413 12.25 5.25 12.25M5.25 15.75C4.78587 15.75 4.34075 15.5656 4.01256 15.2374C3.68437 14.9092 3.5 14.4641 3.5 14C3.5 13.5359 3.68437 13.0908 4.01256 12.7626C4.34075 12.4344 4.78587 12.25 5.25 12.25M5.25 15.75V17.5M5.25 12.25V3.5M10.5 8.75V17.5M15.75 15.75C16.2141 15.75 16.6592 15.5656 16.9874 15.2374C17.3156 14.9092 17.5 14.4641 17.5 14C17.5 13.5359 17.3156 13.0908 16.9874 12.7626C16.6592 12.4344 16.2141 12.25 15.75 12.25M15.75 15.75C15.2859 15.75 14.8408 15.5656 14.5126 15.2374C14.1844 14.9092 14 14.4641 14 14C14 13.5359 14.1844 13.0908 14.5126 12.7626C14.8408 12.4344 15.2859 12.25 15.75 12.25M15.75 15.75V17.5M15.75 12.25V3.5" stroke="#a6acaf" strokeWidth="1.25" strokeLinecap="round" strokeLinejoin="round"/>
</svg>
