<svg xmlns="http://www.w3.org/2000/svg" width="1320" height="348" fill="none"><path fill="#8D8D8D66" fill-rule="evenodd" d="M622.907 6.193c-6.707 9.933-9.138 19.308-8.283 31.951 1.282 18.95 11.641 34.134 28.319 41.5l8.11 3.583-1.089 9.195c-.602 5.059-1.931 10.035-2.955 11.058-2.388 2.385-2.419 9.649-.049 11.113 3.425 2.115 1.89 8.223-2.486 9.884-6.124 2.326-12.043 10.558-12.043 16.75 0 6.391 4.271 15.148 8.105 16.617 4.526 1.735 3.374 3.939-7.98 15.278-9.182 9.17-15.676 13.198-44.04 27.312-23.755 11.822-36.281 19.225-43.798 25.889-11.467 10.162-22.948 25.814-26.804 36.538-1.344 3.742-3.096 6.802-3.895 6.802-2.292 0-1.689-11.733.728-14.147 1.695-1.692 1.695-2.177 0-2.177-1.231 0-2.179-2.473-2.179-5.691 0-4.119-2.007-7.866-7.265-13.563-3.995-4.329-7.264-9.161-7.264-10.738s-.83-2.355-1.845-1.729c-1.015.628-1.43 1.814-.921 2.637.51.824-2.746 5.216-7.234 9.763-8.846 8.962-8.63 8.062-8.508 35.191.054 11.764-.485 14.963-2.517 14.963-1.733 0-2.584-2.049-2.584-6.221 0-5.073-.756-6.33-4.087-6.801-3.55-.504-3.972-1.413-3.22-6.929 2.617-19.157-1.58-29.561-15.357-38.063-3.516-2.171-6.394-5.046-6.394-6.39 0-1.344-1.161-3.602-2.577-5.016-1.419-1.417-3.356-8.209-4.31-15.094l-1.729-12.518-.448 10.882c-.246 5.985-.382 11.397-.304 12.027.078.629-1.46 2.591-3.418 4.362-1.957 1.77-3.559 4.262-3.559 5.539 0 1.276-3.178 4.603-7.061 7.39-12.524 8.991-15.254 14.784-14.327 30.398.751 12.666.553 13.6-2.979 14.105-2.459.351-3.596 1.655-3.245 3.727.294 1.754-.294 4.61-1.308 6.348-1.34 2.299-1.858-1.622-1.9-14.372-.038-12.451.603-17.752 2.216-18.295 1.814-.609 1.814-1.315-.005-3.516-1.706-2.066-2.181-13.527-1.904-45.807.36-41.602.247-43.153-3.39-46.056-2.069-1.653-4.66-4.638-5.759-6.633-1.509-2.74-2.012-2.929-2.054-.769-.029 1.571-2.161 4.833-4.735 7.247l-4.68 4.391 1.281 23.119c.926 16.723.688 23.83-.858 25.689-1.458 1.758-1.532 2.944-.232 3.747 1.09.673 1.905 7.839 1.905 16.739 0 12.672-.59 16.02-3.178 18.03-2.792 2.169-2.842 2.671-.418 4.139 2.198 1.327 2.692 5.129 2.417 18.588-.189 9.306-.408 22.836-.49 30.069-.118 10.489-.705 13.149-2.906 13.149-1.983 0-2.493-1.275-1.816-4.534.518-2.494 1.375-6.605 1.902-9.135 1.917-9.192-2.354-18.382-12.793-27.525-5.452-4.775-9.923-9.435-9.936-10.352-.013-.92-1.23-3.004-2.704-4.631-2.937-3.239-4.112-8.016-4.699-19.091-.316-5.985-.608-5.27-1.674 4.087-.726 6.38-2.604 12.79-4.291 14.652-1.651 1.821-3.001 4.5-3.001 5.951 0 1.453-2.246 3.974-4.994 5.604-13.599 8.073-18.788 18.612-16.795 34.118l1.055 8.214-6.905-3.412c-8.103-4.004-16.714-3.067-23.936 2.606l-4.724 3.711v-6.116c0-3.364.981-7.096 2.179-8.294 1.695-1.692 1.695-2.66 0-4.352-2.339-2.336-3.102-27.129-.902-29.328.703-.701 1.129-5.903.95-11.56-.278-8.8-1.119-11.078-5.817-15.768l-5.49-5.485-5.491 5.485c-4.698 4.69-5.539 6.968-5.817 15.768-.179 5.657.247 10.859.95 11.56 2.259 2.257 1.428 26.992-.993 29.554-1.816 1.923-1.816 2.57 0 3.234 1.491.548 2.27 4.799 2.27 12.404v11.569l-10.443-10.573c-7.349-7.444-13.132-11.49-19.523-13.665-17.694-6.016-18.103-6.398-18.693-17.465-.467-8.713.051-10.529 4.086-14.312 5.285-4.959 6.168-13.659 1.953-19.225-2.483-3.279-2.672-3-2.725 4.055-.074 9.731-6.732 15.774-16.163 14.673l-6.16-.718 4.07 3.292c2.237 1.81 6.064 3.29 8.503 3.29 4.204 0 4.406.489 3.884 9.462-.599 10.323-1.556 11.23-16.893 15.998-13.394 4.164-22.609 12.182-32.952 28.672-.217.349-2.707-.734-5.535-2.401-5.348-3.156-9.64-10.198-9.64-15.819 0-1.797-.817-3.266-1.816-3.266-.999 0-1.816 1.469-1.816 3.266 0 5.731-4.186 12.386-10.319 16.4-3.275 2.143-6.467 5.941-7.094 8.439-1.404 5.584-1.371 5.584-10.998-.049-8.948-5.238-11.454-8.971-11.754-17.508-.193-5.47-.465-5.145-3.011 3.595l-2.799 9.609-16.703 7.951c-20.311 9.67-26.942 16.479-25.968 26.663.476 4.998-.036 6.926-1.845 6.926-1.944 0-2.398-2.947-2.022-13.149.507-13.793-2.126-23.931-6.668-25.671-1.47-.564-3.832-3.691-5.25-6.948-1.94-4.458-2.594-4.997-2.649-2.18-.038 2.059-2.522 6.087-5.519 8.954-2.996 2.868-5.448 6.693-5.448 8.501 0 1.808-.708 3.288-1.573 3.288-.866 0-1.159 5.808-.65 12.908l.924 12.906-9.338-9.576c-6.927-7.101-9.387-11.022-9.526-15.173l-.185-5.599-1.85 5.744C.82 344.763-4 351.59-8.875 356.774c-7.464 7.942-8.86 10.537-8.86 16.475 0 5.838-.623 7.048-3.633 7.048-3.56 0-3.632 1.21-3.632 59.852V500h1353v-59.851c0-58.325-.09-59.852-3.58-59.852-2.43 0-3.24-.869-2.52-2.724 1.99-5.196-1.34-12.074-10.31-21.271-6.64-6.809-9.06-10.717-9.2-14.841l-.19-5.599-1.97 6.179c-1.09 3.397-5.56 9.863-9.95 14.366l-7.96 8.191.38-10.741c.38-10.448-4.03-24.343-7.73-24.343-.83 0-3.13-2.652-5.11-5.894-1.97-3.243-3.6-4.62-3.6-3.06s-2.46 5.18-5.46 8.047c-2.99 2.868-5.44 6.693-5.44 8.501 0 1.808-.7 3.288-1.55 3.288-.85 0-1.15 6.121-.67 13.603.54 8.399.19 13.602-.93 13.602-.99 0-1.81-3.123-1.81-6.941 0-10.865-4.57-15.735-23.41-24.949-18.68-9.139-22.41-12.839-22.63-22.471-.14-6.152-.25-6.04-2.9 2.934-2.45 8.262-3.78 9.887-11.67 14.176-8.31 4.511-9 4.618-10.08 1.551-.64-1.812-5.13-7.152-9.98-11.869-7.69-7.478-8.84-9.563-9.02-16.323l-.21-7.748-1.27 6.348c-1.66 8.303-4.91 14.11-10.64 19.034l-4.66 3.998-5.58-8.211c-7.86-11.564-17.3-18.483-31.44-23.061-13.12-4.244-14.46-5.956-14.82-18.965-.16-5.87.24-6.363 5.38-6.546 8-.287 11.55-4.337 3.8-4.337-8.73 0-15.42-7.301-14.43-15.755l.76-6.48-3.3 4.064c-4.53 5.594-4.12 11.466 1.25 17.841 3.49 4.145 4.53 7.422 4.51 14.194-.03 11.227-.95 12.509-10.87 15.115-11.56 3.044-22.25 9.667-29.8 18.482l-6.5 7.585.31-39.263.31-39.262-4.86-4.497c-2.67-2.473-4.88-5.555-4.91-6.85-.04-1.418-.8-1.084-1.92.838-1.02 1.754-3.92 5.243-6.43 7.75l-4.56 4.56 1.28 25.349c1.05 20.62.84 25.348-1.14 25.348-1.89 0-1.95.485-.26 2.177 1.2 1.197 2.18 5.252 2.18 9.014v6.837l-6.81-4.63c-5.56-3.781-8.12-4.42-13.98-3.493-3.947.626-8.238 2.017-9.535 3.092-2.928 2.427-2.775 2.969-3.118-11.183-.336-13.804-2.939-18.588-14.693-27.02-4.487-3.218-8.159-6.756-8.159-7.862 0-1.107-1.232-3.372-2.735-5.032-1.506-1.661-3.231-6.621-3.834-11.025-1.529-11.167-2.512-11.203-2.512-.089 0 6.707-.786 9.729-2.724 10.471-1.498.574-2.724 2.513-2.724 4.307 0 1.845-4.007 6.137-9.212 9.872-11.808 8.472-14.986 15.701-13.704 31.168.772 9.319.449 11.533-1.685 11.533-2.207 0-2.641-5.047-2.641-30.682 0-22.928.574-30.874 2.27-31.444 1.793-.602 1.769-1.369-.109-3.641-1.658-2.008-2.272-8.164-2.027-20.307.193-9.583-.167-17.942-.799-18.575-1.718-1.716-1.391-25.573.366-26.658.835-.515 1.242-5.504.908-11.089-.462-7.655-1.793-11.629-5.414-16.161l-4.804-6.013-5.327 6.058-5.326 6.058 1.295 22.698c.941 16.481.706 23.404-.854 25.281-1.465 1.765-1.544 2.96-.245 3.761 3.015 1.861 2.308 26.446-.939 32.665-1.822 3.488-2.139 5.631-.897 6.045 1.208.402 1.811 7.173 1.62 18.173-.169 9.643-.627 14.473-1.017 10.732-.556-5.298-1.498-6.802-4.266-6.802-3.253 0-3.518-1.18-3.158-14.056.455-16.376-1.404-20.277-13.968-29.287-4.488-3.218-8.16-6.899-8.16-8.178 0-1.281-1.44-3.629-3.2-5.22-2.137-1.931-3.345-6.045-3.632-12.373-.585-12.837-2.248-13.753-2.248-1.237 0 6.725-.903 10.803-2.725 12.313-1.498 1.243-2.724 3.769-2.724 5.617 0 1.847-2.248 4.535-4.994 5.971-2.746 1.436-7.855 5.586-11.351 9.221-6.243 6.491-6.356 6.881-6.341 21.918.01 13.198-.413 15.311-3.07 15.311-2.25 0-3.234 1.834-3.646 6.802-.38 4.586-1.452 6.801-3.288 6.801-2.252 0-2.78-3.769-3.047-21.748l-.323-21.748-6.033-5.328c-3.318-2.931-6.992-7.836-8.166-10.899-1.173-3.063-2.194-4.189-2.27-2.503-.076 1.687-3.815 6.792-8.31 11.347-8.799 8.914-8.649 8.308-8.462 33.649l.102 13.602-4.108-12.697c-4.555-14.074-7.929-20.087-17.309-30.831-13.715-15.708-34.94-29.737-61.937-40.935-15.268-6.333-33.122-18.432-40.539-27.473-3.674-4.476-6.68-8.626-6.68-9.219 0-.595 2.044-3.283 4.541-5.975 6.229-6.712 6.164-16.665-.162-24.172-2.586-3.069-5.855-5.581-7.264-5.581-3.173 0-3.402-7.775-.373-12.62 1.787-2.858 1.62-4.128-.908-6.919-2.037-2.247-3.098-6.476-3.098-12.344V83.76l11.44-.237c13.799-.287 26.856-6.214 35.601-16.16 3.218-3.66 5.552-6.954 5.185-7.319-.365-.366-3.968.97-8.007 2.964-16.966 8.383-38.596 5.695-52.956-6.582-13.514-11.55-20.246-30.346-16.732-46.71 1.064-4.954 1.631-9.31 1.259-9.683-.371-.371-2.752 2.4-5.291 6.16ZM392.705 169.92c0 4.043-6.655 6.009-8.049 2.378-.56-1.459-.147-4.277.917-6.265 1.547-2.885 2.461-3.179 4.535-1.46 1.427 1.185 2.597 3.59 2.597 5.347Zm526.671 1.117c0 3.103-1.019 4.313-3.632 4.313-2.777 0-3.633-1.21-3.633-5.138 0-2.828.538-5.677 1.195-6.333 2.067-2.064 6.07 2.657 6.07 7.158Zm-419.884 79.037c1.198 1.197 2.179 4.87 2.179 8.161 0 5.441-.496 5.985-5.448 5.985-4.639 0-5.449-.692-5.449-4.653 0-5.052 2.921-11.67 5.149-11.67.765 0 2.37.98 3.569 2.177Zm300.021 6.999c0 5.143-.763 7.147-2.724 7.147-2.828 0-3.776-7.845-1.626-13.442 1.86-4.841 4.35-1.236 4.35 6.295Zm10.533-6.999c1.199 1.197 2.18 4.87 2.18 8.161 0 5.441-.496 5.985-5.449 5.985-4.952 0-5.448-.544-5.448-5.985 0-5.403 2.601-10.338 5.448-10.338.6 0 2.071.98 3.269 2.177Zm9.417 8.252c.018 4.043-.828 5.894-2.697 5.894-1.947 0-2.724-1.982-2.724-6.951 0-3.825.557-7.509 1.238-8.189 1.974-1.973 4.152 2.838 4.183 9.246Zm-330.505-1.36c0 3.99-.817 7.254-1.816 7.254-.999 0-1.816-3.264-1.816-7.254 0-3.99.817-7.255 1.816-7.255.999 0 1.816 3.265 1.816 7.255Zm19.978 0c0 3.99-.818 7.254-1.817 7.254-.998 0-1.816-3.264-1.816-7.254 0-3.99.818-7.255 1.816-7.255.999 0 1.817 3.265 1.817 7.255Zm-234.888-2.599c1.514 3.939-2.329 7.644-5.08 4.897-2.325-2.322-.885-7.739 2.058-7.739 1.062 0 2.42 1.278 3.022 2.842Zm761.562 1.799c0 1.438-1.64 2.613-3.64 2.613-3.96 0-5.02-4.639-1.36-5.952 3.08-1.101 5 .185 5 3.339ZM40.316 351.158c1.034 1.93 1.88 6.419 1.88 9.976 0 5.978-.414 6.467-5.448 6.467-5.303 0-5.449-.235-5.449-8.765 0-4.823.545-9.312 1.212-9.975 2.282-2.282 5.926-1.208 7.805 2.297Zm1231.324 0c1.03 1.93 1.88 6.419 1.88 9.976 0 5.978-.42 6.467-5.45 6.467-5.3 0-5.45-.235-5.45-8.765 0-4.823.54-9.312 1.21-9.975 2.28-2.282 5.93-1.208 7.81 2.297ZM27.667 358.533c0 4.988-.817 9.068-1.816 9.068-2.003 0-2.539-14.995-.605-16.927 2.167-2.164 2.421-1.336 2.421 7.859Zm19.977 0c0 4.988-.817 9.068-1.816 9.068-2.003 0-2.539-14.995-.605-16.927 2.167-2.164 2.421-1.336 2.421 7.859Zm1211.346 0c0 4.988-.82 9.068-1.82 9.068-2 0-2.54-14.995-.6-16.927 2.16-2.164 2.42-1.336 2.42 7.859Zm19.98 0c0 4.988-.82 9.068-1.82 9.068-2 0-2.54-14.995-.61-16.927 2.17-2.164 2.43-1.336 2.43 7.859Z" clip-rule="evenodd"/></svg>